<svg xmlns="http://www.w3.org/2000/svg" viewBox="0 0 256 256" width="256" height="256">
  <defs>
    <linearGradient id="bg" x1="0" y1="0" x2="1" y2="1">
      <stop offset="0%" stop-color="#facc15"/>
      <stop offset="100%" stop-color="#f59e0b"/>
    </linearGradient>
  </defs>
  <rect width="256" height="256" rx="56" fill="url(#bg)"/>
  <path d="M72 96h112a18 18 0 0 1 18 18v64a18 18 0 0 1-18 18H72a18 18 0 0 1-18-18v-64a18 18 0 0 1 18-18z" fill="#1f2937" opacity=".16"/>
  <path d="M80 74h96a18 18 0 0 1 18 18v64a18 18 0 0 1-18 18H80a18 18 0 0 1-18-18V92a18 18 0 0 1 18-18z" fill="#fff"/>
  <path d="M84 112h88M84 136h56" stroke="#1f2937" stroke-width="14" stroke-linecap="round"/>
  <circle cx="164" cy="154" r="24" fill="#2563eb"/>
  <path d="m178 168 20 20" stroke="#1f2937" stroke-width="12" stroke-linecap="round"/>
</svg>
